PathFileType	4	(X/Y/Z)	pose_F01_0-96.trc
DataRate	CameraRate	NumFrames	NumMarkers	Units	OrigDataRate	OrigDataStartFrame	OrigNumFrames
30	30	9	21	m	30	72	96
Frame#	Time	CHip			RHip			RKnee			RAnkle			RBigToe			RSmallToe			RHeel			LHip			LKnee			LAnkle			LBigToe			LSmallToe			LHeel			Neck			Nose			RShoulder			RElbow			RWrist			LShoulder			LElbow			LWrist			
		X1	Y1	Z1	X2	Y2	Z2	X3	Y3	Z3	X4	Y4	Z4	X5	Y5	Z5	X6	Y6	Z6	X7	Y7	Z7	X8	Y8	Z8	X9	Y9	Z9	X10	Y10	Z10	X11	Y11	Z11	X12	Y12	Z12	X13	Y13	Z13	X14	Y14	Z14	X15	Y15	Z15	X16	Y16	Z16	X17	Y17	Z17	X18	Y18	Z18	X19	Y19	Z19	X20	Y20	Z20	X21	Y21	Z21	
72	2.4	-0.19613840116812775	1.8816596762452302	-0.5269969891551961	-0.20476988893301123	1.8798818570033455	-0.46468608066568035	-0.20433737437653088	1.7458221055454244	-0.40545201831633243	-0.20658379507212551	1.6088012525720656	-0.3101586932668073	-0.21440390972533838	1.591905749338861	-0.4344805582687659	-0.2065366794716888	1.6003397865234386	-0.4123237955319815	-0.20447618789949262	1.6053228911428667	-0.3124866982158787	-0.18738940793788147	1.8835236909790456	-0.5923775749660511	-0.188612079759363	1.7291316962945833	-0.6155264369206014	-0.15933553353785812	1.5924347329842876	-0.6484635621747643	-0.18398418624389573	1.552083725080007	-0.6436428694628116	-0.1716793948464242	1.5582235114065546	-0.6777454560768006	-0.14991415542186348	1.583532515979663	-0.6432787851731085	-0.1808117775712135	2.043020463081469	-0.5609516408340782	-0.2003078255204334	2.113316477680916	-0.5629091155648415	-0.18631011497927627	2.035053440690674	-0.48675051507049377	-0.1887414453049111	1.951098919972191	-0.43661957053407563	-0.20512248188735221	1.8781327150911789	-0.36970276284549025	-0.17109501273489094	2.0506055430248136	-0.6338193605877565	-0.22025462584797834	2.0860941666440653	-0.6309642696276734	-0.26720582157202427	2.1290038501280883	-0.6132494203505238
73	2.433333333333333	-0.19613263032343148	1.8803257486903697	-0.5268098459707641	-0.204758311827365	1.8784682355191082	-0.464455239836457	-0.2060719549332969	1.7438623235318085	-0.4031797505625527	-0.20753004232151867	1.608221264073681	-0.31352424626612313	-0.21440390972533838	1.591905749338861	-0.4344805582687659	-0.2065366794716888	1.6003397865234386	-0.4123237955319815	-0.204150357544713	1.6037762778222562	-0.31255997990938666	-0.18948875635766604	1.8835061890777627	-0.5902942324076114	-0.18857968772863692	1.728698819677581	-0.615477571990216	-0.15920774707889243	1.5924386471987444	-0.647129026679803	-0.18369277272603898	1.5521627529507342	-0.6425479768563266	-0.1714076731178278	1.5583517253143095	-0.6766822362274394	-0.15002691918723385	1.584038177979176	-0.6431475576735123	-0.1828255957250357	2.043059271761831	-0.5588508696771587	-0.2002576065495671	2.114579347317769	-0.5636942298991002	-0.18627538921335718	2.0360627508437465	-0.48675878390604915	-0.1887414453049111	1.951098919972191	-0.43661957053407563	-0.20512248188735221	1.8781327150911789	-0.36970276284549025	-0.1731731466976799	2.051910521952479	-0.6321509456445381	-0.22437203572289194	2.0871159030082502	-0.6263693375983523	-0.2712154745342019	2.1344353608631126	-0.6094138611017162
74	2.466666666666667	-0.19825270399139266	1.8817135078025709	-0.5248667987375661	-0.2077764281654411	1.8799426075063401	-0.46566457998844923	-0.2064906676911103	1.7442447667148955	-0.4029512321248697	-0.20789418113558375	1.6102544807027765	-0.3133775856174769	-0.21440390972533838	1.591905749338861	-0.4344805582687659	-0.2065366794716888	1.6003397865234386	-0.4123237955319815	-0.20548100855780096	1.6050820405404875	-0.3159242635130849	-0.19042364215501886	1.8836762017335331	-0.5932457715482355	-0.19099983791596808	1.7312877088972694	-0.6132731764721916	-0.16002746703505152	1.5923803262374223	-0.6503741099184167	-0.18158917113862247	1.5523401067560068	-0.644804861951405	-0.17224073762618625	1.5584387358883596	-0.6798432811686635	-0.1481523226770838	1.5830109893331834	-0.6449359298960324	-0.18074457889022824	2.044168314419303	-0.5609480317500367	-0.19924016307390358	2.114742157512112	-0.568861032726417	-0.18423712025755243	2.036128784144758	-0.4890313843006574	-0.1887414453049111	1.951098919972191	-0.43661957053407563	-0.20512248188735221	1.8781327150911789	-0.36970276284549025	-0.17311447157557622	2.053046380971813	-0.6319211024493459	-0.22346756765609316	2.0880847955654374	-0.6230282901314219	-0.27139170730602563	2.1376660613902456	-0.6022033376418184
75	2.5	-0.19743435099948148	1.8830362117069337	-0.5218297332143944	-0.20588613338963196	1.8798426776673487	-0.459144332948393	-0.20564309641916104	1.7455810496068167	-0.3996765126875162	-0.20818788812357533	1.6120836824283136	-0.3132767862824726	-0.21440390972533838	1.591905749338861	-0.4344805582687659	-0.2065366794716888	1.6003397865234386	-0.4123237955319815	-0.20582551975167213	1.6070240306195949	-0.31585334206487253	-0.1916149680059815	1.8849907205899665	-0.5880856550680277	-0.1905575151747057	1.7349365665172558	-0.6101638228716891	-0.15899853488478818	1.5910679439385405	-0.647423552284911	-0.18395123273797853	1.5507875343170137	-0.6420491131258558	-0.1721926657109477	1.5579736827239854	-0.679786865755448	-0.14999347875064298	1.5812317579038202	-0.6429946349373935	-0.18077876617903568	2.044211150989267	-0.5610044131334622	-0.20211068153575457	2.114843306201196	-0.5696499099468941	-0.18512817581685118	2.0371189581982567	-0.4921516213120523	-0.1887414453049111	1.951098919972191	-0.43661957053407563	-0.20512248188735221	1.8781327150911789	-0.36970276284549025	-0.1751699187948767	2.0529837638393915	-0.629733480460059	-0.22452102647712152	2.0891674787578656	-0.617590170929079	-0.273309664476979	2.1404859060656607	-0.5922386338080945
76	2.533333333333333	-0.19948357960550997	1.8803856842771414	-0.5190870759632719	-0.20786783024227748	1.8772843988893255	-0.4563148388314345	-0.2057032987733438	1.7428397321072753	-0.39920532850385543	-0.2080691829540211	1.6111375608472225	-0.31341382273098345	-0.21440390972533838	1.591905749338861	-0.4344805582687659	-0.2065366794716888	1.6003397865234386	-0.4123237955319815	-0.20591169197050882	1.607507220653137	-0.31584615847871317	-0.1910853393360479	1.882531182688361	-0.5846393069688736	-0.19033808791010204	1.7362824736765499	-0.6105061648519888	-0.15899192737977116	1.593737820506482	-0.6477184128956711	-0.18270810526371659	1.550616250771952	-0.6473975605145449	-0.17212209834755401	1.5576747484912365	-0.6798371851400259	-0.1521353894627423	1.5837465007369755	-0.6409321349245352	-0.1808396185483038	2.0444929967053644	-0.5616170304037024	-0.2020380441859879	2.1158978079790383	-0.569446342561697	-0.1852839671916839	2.0351193574093105	-0.4923451765030223	-0.1887414453049111	1.951098919972191	-0.43661957053407563	-0.20512248188735221	1.8781327150911789	-0.36970276284549025	-0.17525265225542416	2.0517755083960725	-0.629845074303297	-0.22569334459479606	2.0901041653770993	-0.6122713533474392	-0.2734472338540754	2.1401946785072865	-0.5842892007610055
77	2.566666666666667	-0.20170402470006343	1.8806066840348101	-0.5168832893773251	-0.209012568475222	1.8798861153348831	-0.451364992804695	-0.20773902950132947	1.7414961490354612	-0.39671210313357763	-0.20772141269352057	1.609168714670999	-0.3136380529001357	-0.21440390972533838	1.591905749338861	-0.4344805582687659	-0.2065366794716888	1.6003397865234386	-0.4123237955319815	-0.20368996672456624	1.6048288287914725	-0.3183613460554905	-0.1911467893572875	1.882551046165709	-0.5845454845108369	-0.1916363524798147	1.7305778622749959	-0.6041852148402777	-0.15875280209100157	1.5924726905433177	-0.647864728311654	-0.1806761281305497	1.552206476307325	-0.6415640350565149	-0.17130615114479536	1.5580832674445981	-0.6766535998654787	-0.14973180057432386	1.5824784234701452	-0.6435045145905756	-0.18079423571979913	2.0456031269809554	-0.5616578690585363	-0.20121880280404145	2.1145113089797007	-0.565878826132418	-0.18405570499051946	2.0388206274762672	-0.4979839586865055	-0.1887414453049111	1.951098919972191	-0.43661957053407563	-0.20512248188735221	1.8781327150911789	-0.36970276284549025	-0.1752431219780177	2.0530416488986796	-0.6297762604358452	-0.2277840215582694	2.0903541934686776	-0.6107834301870662	-0.27258888881626175	2.1413993080340816	-0.5825326309722584
78	2.6	-0.20069437179506042	1.8790877794919274	-0.5133809533638806	-0.2080238970075066	1.877241097453761	-0.447669214845562	-0.20489609171749262	1.7418036852693664	-0.395390732142295	-0.20824884408871044	1.6122413507183893	-0.3133519050715325	-0.21440390972533838	1.591905749338861	-0.4344805582687659	-0.2065366794716888	1.6003397865234386	-0.4123237955319815	-0.2060486076546344	1.6079278007915878	-0.3160191394270587	-0.19225455537027658	1.8823499945664481	-0.5789885298601832	-0.1912097602235052	1.7297024604216893	-0.6044424809763497	-0.1587722272324258	1.5924921403319754	-0.6478342407303725	-0.1837054995176742	1.549209706796813	-0.6422392428368432	-0.17128755690990444	1.5577218412834646	-0.6766722926346063	-0.14975633846973532	1.5825166492277765	-0.6434638296366897	-0.18083686130815027	2.043125021124257	-0.5610958726900594	-0.20320795944757455	2.11572400365552	-0.5643559131676211	-0.18324734533627926	2.036201536670313	-0.4944528285752505	-0.1887414453049111	1.951098919972191	-0.43661957053407563	-0.20512248188735221	1.8781327150911789	-0.36970276284549025	-0.17526277141643737	2.0505365760816114	-0.6293518139488959	-0.22776120682697729	2.089084206172609	-0.6102107364872076	-0.27446800823005363	2.141295545846548	-0.5795794976166262
79	2.6333333333333333	-0.19958155774013717	1.8778052963453573	-0.5185730775137339	-0.2070160424238314	1.8759981802819072	-0.4528224770811544	-0.2055072168665521	1.7444435086386165	-0.3994717157540761	-0.20780313154884159	1.6096484429967362	-0.31357517592916934	-0.21440390972533838	1.591905749338861	-0.4344805582687659	-0.2065366794716888	1.6003397865234386	-0.4123237955319815	-0.20512854234289699	1.605304072163353	-0.3166821639987007	-0.19396403608549684	1.8810491166824885	-0.585243318210384	-0.19464652782778988	1.726811252480841	-0.604782538996182	-0.1592477454443665	1.5924411208364402	-0.6471722541130571	-0.1834953918611187	1.5506991224136286	-0.642866226356996	-0.1722325710391806	1.558121603848078	-0.6797964737752455	-0.15032394570527277	1.5829013201495645	-0.642663622310741	-0.1807850665511242	2.044157254251869	-0.5611401760605744	-0.2021109097305229	2.1159308544513955	-0.5694240735552641	-0.18405908552678643	2.037292186677348	-0.4974470176895698	-0.1887414453049111	1.951098919972191	-0.43661957053407563	-0.20512248188735221	1.8781327150911789	-0.36970276284549025	-0.17533238824348757	2.0505576934887597	-0.6294029058953069	-0.22766079011376603	2.0901218806662767	-0.6101212530765432	-0.2724130147730562	2.141301923248321	-0.5816977173904048
80	2.6666666666666665	-0.20147688750619977	1.878915661857442	-0.516464758965145	-0.20690355852882986	1.8771898692849933	-0.453000172395848	-0.20755553324064457	1.7430906549370488	-0.39698948084361224	-0.20668334223272922	1.6092298129716827	-0.31007621820568926	-0.21440390972533838	1.591905749338861	-0.4344805582687659	-0.2065366794716888	1.6003397865234386	-0.4123237955319815	-0.20449067971439744	1.6054832726454207	-0.3124965075129696	-0.19511759222091934	1.88213242391841	-0.5799476639441306	-0.1949029856299219	1.7288492679417382	-0.6046962085414689	-0.16110266184072974	1.5936458873110388	-0.6454647063891091	-0.18377694125971628	1.5493149953085192	-0.6423248254533462	-0.17217963212084664	1.5577873007078908	-0.679769141047583	-0.15212124696662385	1.583854905865037	-0.6409729787397499	-0.18165747702077728	2.044314609200112	-0.5641261124112024	-0.20415517738059544	2.11478170369079	-0.5675159054823593	-0.18397969600165176	2.0382129996532248	-0.4975437037839331	-0.1887414453049111	1.951098919972191	-0.43661957053407563	-0.20512248188735221	1.8781327150911789	-0.36970276284549025	-0.17726167254775388	2.0503950202469876	-0.626620866709679	-0.22566660916034192	2.0891963444452286	-0.6124843102217659	-0.2703815978801405	2.143676657529902	-0.58418990035916
